<svg width="24" height="24" viewBox="0 0 24 24" fill="none" xmlns="http://www.w3.org/2000/svg">
<path fill-rule="evenodd" clip-rule="evenodd" d="M17.0938 7.0625H7.34375C7.24062 7.0625 7.15625 6.97812 7.15625 6.875C7.15625 5.9375 7.3625 5.07734 7.76328 4.34141C8.16641 3.60313 8.75938 3.01016 9.49766 2.60703C10.2336 2.20625 11.0938 2 12.0312 2H12.4062C13.3438 2 14.2039 2.20625 14.9398 2.60703C15.6781 3.01016 16.2711 3.60313 16.6742 4.34141C17.075 5.07734 17.2812 5.9375 17.2812 6.875C17.2812 6.97812 17.1969 7.0625 17.0938 7.0625ZM18.7812 12.5H22.25C22.3531 12.5 22.4375 12.5844 22.4375 12.6875V14C22.4375 14.1031 22.3531 14.1875 22.25 14.1875H18.7812V16.4375C18.7812 16.5898 18.7742 16.7398 18.7648 16.8898C20.3727 17.5766 21.5 19.1727 21.5 21.0312C21.5 21.1344 21.4156 21.2188 21.3125 21.2188H20C19.8969 21.2188 19.8125 21.1344 19.8125 21.0312C19.8125 19.9953 19.2523 19.0883 18.4203 18.5984C18.2797 18.9992 18.1016 19.3836 17.8883 19.7469C17.3187 20.7195 16.5055 21.5328 15.5328 22.1023C14.8555 22.4984 14.1031 22.7773 13.2992 22.9109C13.1961 22.9109 13.1117 22.8266 13.1117 22.7234V11.8438C13.1117 11.7406 13.0273 11.6562 12.9242 11.6562H11.518C11.4148 11.6562 11.3305 11.7406 11.3305 11.8438V22.7258C11.3305 22.8289 11.2461 22.9133 11.143 22.9133C10.3391 22.7797 9.58672 22.5008 8.90938 22.1047C7.93672 21.5352 7.12344 20.7219 6.55391 19.7492C6.34063 19.3883 6.1625 19.0039 6.02187 18.6008C5.18516 19.0883 4.625 19.9953 4.625 21.0312C4.625 21.1344 4.54063 21.2188 4.4375 21.2188H3.125C3.02188 21.2188 2.9375 21.1344 2.9375 21.0312C2.9375 19.1727 4.06484 17.5766 5.67266 16.8898C5.66094 16.7422 5.65625 16.5898 5.65625 16.4375V14.1875H2.1875C2.08438 14.1875 2 14.1031 2 14V12.6875C2 12.5844 2.08438 12.5 2.1875 12.5H5.65625V10.1562C3.85625 10.1562 2.39844 8.69844 2.39844 6.89844C2.39844 6.79531 2.48281 6.71094 2.58594 6.71094H3.99219C4.09531 6.71094 4.17969 6.79531 4.17969 6.89844C4.17969 7.71406 4.84063 8.375 5.65625 8.375H18.7812C19.5969 8.375 20.2578 7.71406 20.2578 6.89844C20.2578 6.79531 20.3422 6.71094 20.4453 6.71094H21.8516C21.9547 6.71094 22.0391 6.79531 22.0391 6.89844C22.0391 8.69844 20.5812 10.1562 18.7812 10.1562V12.5Z" fill="#B72136"/>
</svg>
