<svg width="24" height="24" viewBox="0 0 24 24" fill="none" xmlns="http://www.w3.org/2000/svg">
<path fill-rule="evenodd" clip-rule="evenodd" d="M15.3893 1.4233L14.4132 2.695C16.0293 3.60513 17.1627 5.27139 17.3239 7.21743H5.89348C6.05465 5.27139 7.18813 3.60513 8.80417 2.69548L7.82804 1.42378C7.7477 1.31904 7.7673 1.16887 7.87204 1.08852C7.97774 1.00865 8.12743 1.02826 8.2073 1.13252L9.23796 2.475C9.96109 2.14548 10.7617 1.95656 11.6087 1.95656C12.4557 1.95656 13.2563 2.14548 13.9794 2.47452L15.0101 1.13204C15.0904 1.02778 15.2406 1.00674 15.3453 1.08804C15.4501 1.16839 15.4697 1.31856 15.3893 1.4233ZM8.97826 5.30439C9.37446 5.30439 9.69565 4.9832 9.69565 4.587C9.69565 4.19079 9.37446 3.86961 8.97826 3.86961C8.58206 3.86961 8.26087 4.19079 8.26087 4.587C8.26087 4.9832 8.58206 5.30439 8.97826 5.30439ZM14.9565 4.587C14.9565 4.9832 14.6353 5.30439 14.2391 5.30439C13.8429 5.30439 13.5217 4.9832 13.5217 4.587C13.5217 4.19079 13.8429 3.86961 14.2391 3.86961C14.6353 3.86961 14.9565 4.19079 14.9565 4.587ZM3 14.1522C3 14.8127 3.53517 15.3479 4.19565 15.3479C4.85613 15.3479 5.3913 14.8127 5.3913 14.1522V8.89135C5.3913 8.23087 4.85613 7.69569 4.19565 7.69569C3.53517 7.69569 3 8.23087 3 8.89135V14.1522ZM17.8261 14.1522C17.8261 14.8127 18.3613 15.3479 19.0217 15.3479C19.6822 15.3479 20.2174 14.8127 20.2174 14.1522V8.89135C20.2174 8.23087 19.6822 7.69569 19.0217 7.69569C18.3613 7.69569 17.8261 8.23087 17.8261 8.89135V14.1522ZM5.86957 7.69569V17.7392C5.86957 18.2677 6.29761 18.6957 6.82609 18.6957H7.78261V21.8044C7.78261 22.4649 8.31778 23 8.97826 23C9.63874 23 10.1739 22.4649 10.1739 21.8044V18.6957H13.0435V21.8044C13.0435 22.4649 13.5787 23 14.2391 23C14.8996 23 15.4348 22.4649 15.4348 21.8044V18.6957H16.3913C16.9198 18.6957 17.3478 18.2677 17.3478 17.7392V7.69569H5.86957Z" fill="#007B55"/>
</svg>
