<svg width="36" height="36" viewBox="0 0 36 36" fill="none" xmlns="http://www.w3.org/2000/svg">
<path fill-rule="evenodd" clip-rule="evenodd" d="M22.425 21.25L25.2583 24.075C25.4161 24.2315 25.5048 24.4445 25.5048 24.6667C25.5048 24.8889 25.4161 25.1019 25.2583 25.2583C25.1019 25.4161 24.8889 25.5048 24.6667 25.5048C24.4445 25.5048 24.2315 25.4161 24.075 25.2583L21.25 22.425C20.0854 23.3392 18.6472 23.8352 17.1667 23.8333C13.4848 23.8333 10.5 20.8486 10.5 17.1667C10.5 13.4848 13.4848 10.5 17.1667 10.5C20.8486 10.5 23.8333 13.4848 23.8333 17.1667C23.8352 18.6472 23.3392 20.0854 22.425 21.25ZM17.1667 12.1667C14.4052 12.1667 12.1667 14.4052 12.1667 17.1667C12.1667 19.9281 14.4052 22.1667 17.1667 22.1667C19.9281 22.1667 22.1667 19.9281 22.1667 17.1667C22.1667 14.4052 19.9281 12.1667 17.1667 12.1667Z" fill="#637381"/>
</svg>
