<svg width="22" height="22" viewBox="0 0 22 22" fill="none" xmlns="http://www.w3.org/2000/svg">
<path fill-rule="evenodd" clip-rule="evenodd" d="M15.5688 1.83337H6.41671C3.89951 1.83337 1.83337 3.89951 1.83337 6.43126V15.5834C1.83337 18.1006 3.89951 20.1667 6.41671 20.1667H15.5688C18.1006 20.1667 20.1667 18.1006 20.1667 15.5688V6.43126C20.1667 3.89951 18.1006 1.83337 15.5688 1.83337ZM16.7037 13.0953C16.6892 15.0741 15.0596 16.6746 13.0662 16.6746H8.9048C6.91142 16.6746 5.32544 15.0887 5.32544 13.1098V8.89025C5.32544 6.91142 6.91142 5.32544 8.9048 5.32544H11.4365C12.3678 5.32544 13.7355 6.213 14.2302 7.27517C14.2516 7.32271 14.2718 7.36364 14.2911 7.40273C14.3901 7.60295 14.4651 7.75481 14.5503 8.4974L14.562 8.58925C14.6134 8.99402 14.6517 9.29618 14.8413 9.47226C15.0049 9.61945 15.4119 9.62878 15.7759 9.63711C16.0596 9.64361 16.3171 9.64951 16.4127 9.71962L16.5728 9.85057L16.6746 10.0543L16.7037 10.1998V13.0953ZM10.9564 8.23549H8.94845C8.57015 8.23549 8.25004 8.51195 8.25004 8.89025C8.25004 9.26856 8.57015 9.54501 8.94845 9.54501H10.9564C11.3347 9.54501 11.6548 9.26856 11.6548 8.89025C11.6548 8.51195 11.3492 8.23549 10.9564 8.23549ZM13.0371 12.3096H8.94845C8.57015 12.3096 8.25004 12.6588 8.25004 13.0371C8.25004 13.4154 8.5556 13.7646 8.94845 13.7646H13.0371C13.4154 13.7646 13.7209 13.4154 13.7209 13.0371C13.7209 12.6588 13.4154 12.3096 13.0371 12.3096Z" fill="#637381"/>
</svg>
