<svg width="22" height="22" viewBox="0 0 22 22" fill="none" xmlns="http://www.w3.org/2000/svg">
<path opacity="0.48" fill-rule="evenodd" clip-rule="evenodd" d="M13.3519 3.34803C13.3519 2.51445 14.0336 1.83337 14.8672 1.83337C15.7007 1.83337 16.3848 2.51445 16.3848 3.34803C16.3848 4.18163 15.7007 4.86328 14.8672 4.86328C14.0336 4.86328 13.3519 4.18163 13.3519 3.34803ZM7.41821 5.47199C7.81504 4.07373 9.10066 3.04486 10.624 3.04486C12.1473 3.04486 13.4329 4.07373 13.8298 5.47199H7.41821Z" fill="#637381"/>
<path fill-rule="evenodd" clip-rule="evenodd" d="M2.74229 4.25928C2.46433 4.25928 2.21858 4.37379 2.06193 4.55001C1.90529 4.72624 1.83337 4.94861 1.83337 5.1676C1.83337 5.38659 1.90529 5.60896 2.06193 5.78519C2.21858 5.9614 2.46433 6.07651 2.74229 6.07651H4.41859L6.09431 15.0437C6.17435 15.4716 6.55386 15.7779 6.98546 15.7779H16.6868C17.1029 15.7779 17.4759 15.4938 17.5709 15.0822L19.3905 7.19977C19.5205 6.63657 19.0892 6.07829 18.5065 6.07829H6.27609L6.05878 4.99114C5.97454 4.56842 5.59926 4.26043 5.16823 4.25928H2.74229ZM8.80447 16.3842C7.97089 16.3842 7.28982 17.0659 7.28981 17.8995C7.28981 18.7331 7.97088 19.4165 8.80447 19.4165C9.63806 19.4165 10.3197 18.7331 10.3197 17.8995C10.3197 17.0659 9.63805 16.3842 8.80447 16.3842ZM13.352 17.8995C13.352 17.0659 14.0337 16.3842 14.8672 16.3842C15.7008 16.3842 16.3849 17.0659 16.3849 17.8995C16.3849 18.7331 15.7008 19.4165 14.8672 19.4165C14.0337 19.4165 13.352 18.7331 13.352 17.8995Z" fill="#637381"/>
</svg>
