<svg width="22" height="22" viewBox="0 0 22 22" fill="none" xmlns="http://www.w3.org/2000/svg">
<path opacity="0.48" d="M16.236 6.52196C16.9318 6.52902 17.8992 6.53204 18.7199 6.52902C19.1402 6.52801 19.3538 6.02082 19.0623 5.71529C18.008 4.60814 16.1221 2.62677 15.0429 1.4934C14.7444 1.17981 14.2223 1.39559 14.2223 1.83019V4.48815C14.2223 5.60337 15.1318 6.52196 16.236 6.52196" fill="#637381"/>
<path fill-rule="evenodd" clip-rule="evenodd" d="M13.3774 15.4266H7.94635C7.53703 15.4266 7.19759 15.0838 7.19759 14.6704C7.19759 14.2569 7.53703 13.9242 7.94635 13.9242H13.3774C13.7867 13.9242 14.1261 14.2569 14.1261 14.6704C14.1261 15.0838 13.7867 15.4266 13.3774 15.4266M7.94635 8.88252H11.3208C11.7301 8.88252 12.0695 9.22535 12.0695 9.63877C12.0695 10.0522 11.7301 10.3849 11.3208 10.3849H7.94635C7.53703 10.3849 7.19759 10.0522 7.19759 9.63877C7.19759 9.22535 7.53703 8.88252 7.94635 8.88252M19.167 7.99513C18.7377 7.99513 18.2286 8.00521 17.9191 8.00521C17.4598 8.00521 16.8608 7.99513 16.1021 7.99513C14.2751 7.98504 12.7676 6.47254 12.7676 4.62729V1.38046C12.7676 1.12838 12.5679 0.916626 12.3084 0.916626H6.97717C4.49128 0.916626 2.47461 2.96354 2.47461 5.46421V16.334C2.47461 18.9557 4.59111 21.0833 7.18682 21.0833H15.1337C17.6096 21.0833 19.6163 19.0565 19.6163 16.5559V8.44888C19.6163 8.19679 19.4166 7.99513 19.167 7.99513" fill="#637381"/>
</svg>
