<svg width="22" height="22" viewBox="0 0 22 22" fill="none" xmlns="http://www.w3.org/2000/svg">
<path fill-rule="evenodd" clip-rule="evenodd" d="M20.3173 3.51381C20.3173 2.58566 19.5649 1.83325 18.6368 1.83325C17.7086 1.83325 16.9562 2.58566 16.9562 3.51381C16.9562 3.69651 16.9854 3.87241 17.0393 4.0371L14.134 7.37909C13.9597 7.31784 13.7722 7.28453 13.5769 7.28453C13.0605 7.28453 12.5986 7.5174 12.2903 7.88385L10.2589 7.18419C10.207 6.30276 9.47579 5.60397 8.58133 5.60397C7.65319 5.60397 6.90078 6.35638 6.90078 7.28453C6.90078 7.46298 6.92859 7.63494 6.98012 7.7963L4.34965 10.0035C4.10399 9.86292 3.81943 9.78256 3.5161 9.78256C2.58795 9.78256 1.83554 10.535 1.83554 11.4631C1.83554 12.3913 2.58795 13.1437 3.5161 13.1437C4.44424 13.1437 5.19665 12.3913 5.19665 11.4631C5.19665 11.2881 5.16989 11.1193 5.12024 10.9606L7.75622 8.74892C7.99995 8.88655 8.28147 8.96508 8.58133 8.96508C9.10366 8.96508 9.57033 8.7268 9.87856 8.353L11.8983 9.04829C11.9417 9.93778 12.6766 10.6456 13.5769 10.6456C14.505 10.6456 15.2574 9.89323 15.2574 8.96508C15.2574 8.68226 15.1876 8.41575 15.0641 8.18188L17.837 4.99223C18.0748 5.12115 18.3472 5.19436 18.6368 5.19436C19.5649 5.19436 20.3173 4.44195 20.3173 3.51381ZM20.3195 10.5647C20.3195 10.1006 19.9433 9.72443 19.4792 9.72443H17.7987C17.3346 9.72443 16.9584 10.1006 16.9584 10.5647V20.4226C16.9584 20.6757 17.1636 20.8809 17.4167 20.8809H19.8612C20.1143 20.8809 20.3195 20.6757 20.3195 20.4226V10.5647ZM15.2778 16.4547C15.2778 15.9907 14.9016 15.6145 14.4375 15.6145H12.757C12.2929 15.6145 11.9167 15.9907 11.9167 16.4547V20.4226C11.9167 20.6757 12.1219 20.8809 12.375 20.8809H14.8195C15.0726 20.8809 15.2778 20.6757 15.2778 20.4226V16.4547ZM10.2362 14.7676C10.2362 14.3035 9.85995 13.9273 9.39587 13.9273H7.71532C7.25125 13.9273 6.87504 14.3035 6.87504 14.7676V20.4226C6.87504 20.6757 7.08024 20.8809 7.33337 20.8809H9.77782C10.0309 20.8809 10.2362 20.6757 10.2362 20.4226V14.7676ZM5.19449 19.0883C5.19449 18.6242 4.81828 18.248 4.35421 18.248H2.67365C2.20958 18.248 1.83337 18.6242 1.83337 19.0883V20.4226C1.83337 20.6757 2.03858 20.8809 2.29171 20.8809H4.73615C4.98928 20.8809 5.19449 20.6757 5.19449 20.4226V19.0883Z" fill="#637381"/>
</svg>
