<svg width="22" height="22" viewBox="0 0 22 22" fill="none" xmlns="http://www.w3.org/2000/svg">
<path fill-rule="evenodd" clip-rule="evenodd" d="M17.5541 9.55173L18.6816 7.8559L18.6908 7.84673C20.5648 10.7369 20.6604 14.4336 18.9383 17.4167C18.6095 17.9862 18.0009 18.336 17.3433 18.3334H4.64748C3.99644 18.3295 3.39632 17.9806 3.07081 17.4167C0.97637 13.7521 1.6551 9.13095 4.71484 6.22332C7.77459 3.3157 12.4243 2.8733 15.9775 5.15173L14.2816 6.27923C11.3867 4.83108 7.88475 5.45225 5.6645 7.8077C3.44424 10.1632 3.03093 13.6957 4.64748 16.5001H17.3525C18.5829 14.3649 18.6586 11.7546 17.5541 9.55173ZM11.0046 14.6636C10.518 14.6636 10.0513 14.4702 9.70747 14.1259C9.36322 13.782 9.16978 13.3154 9.16978 12.8288C9.16978 12.3422 9.36322 11.8756 9.70747 11.5317L17.49 6.3434L12.3016 14.1259C11.9578 14.4702 11.4911 14.6636 11.0046 14.6636Z" fill="#637381"/>
</svg>
