<svg width="22" height="22" viewBox="0 0 22 22" fill="none" xmlns="http://www.w3.org/2000/svg">
<path d="M19.742 18.8662H2.24983C1.76654 18.8662 1.375 19.2578 1.375 19.7415C1.375 20.2243 1.76654 20.6159 2.24983 20.6159H19.7416C20.2248 20.6159 20.6164 20.2243 20.6164 19.7415C20.616 19.2578 20.2244 18.8662 19.742 18.8662Z" fill="#637381"/>
<path d="M3.34358 16.5918C2.86029 16.5918 2.46875 16.9833 2.46875 17.4666C2.46875 17.9499 2.86029 18.3419 3.34358 18.3419H18.649C19.1323 18.3419 19.5239 17.9499 19.5239 17.4666C19.5239 16.9833 19.1323 16.5918 18.649 16.5918H18.4307V8.71996H18.649C18.8911 8.71996 19.086 8.52419 19.086 8.28295C19.086 8.04172 18.8903 7.84595 18.649 7.84595H3.34358C3.10194 7.84595 2.90658 8.04172 2.90658 8.28295C2.90658 8.52419 3.10235 8.71996 3.34358 8.71996H3.56229V16.5914H3.34358V16.5918ZM16.6811 8.71996V16.5914H14.0574V8.71996H16.6811ZM12.3077 8.71996V16.5914H9.68406V8.71996H12.3077ZM5.31113 8.71996H7.93481V16.5914H5.31113V8.71996Z" fill="#637381"/>
<path opacity="0.48" d="M2.24985 7.05956H19.7416C19.7444 7.05956 19.7477 7.05956 19.7502 7.05956C20.2339 7.05956 20.625 6.66802 20.625 6.18473C20.625 5.80056 20.3776 5.47495 20.034 5.357L11.3553 1.45179C11.1272 1.3494 10.8663 1.3494 10.6377 1.45179L1.89107 5.38731C1.51468 5.55687 1.30785 5.96561 1.39468 6.36863C1.48109 6.77164 1.83742 7.05956 2.24985 7.05956Z" fill="#637381"/>
</svg>
