<svg width="22" height="22" viewBox="0 0 22 22" fill="none" xmlns="http://www.w3.org/2000/svg">
<path d="M7.57733 5.6308V8.14673C7.57733 8.4583 7.82954 8.7105 8.14111 8.7105C8.42402 8.7105 8.65848 8.50207 8.69877 8.23008L8.70489 8.14673V5.6308H13.8915V8.14673C13.8915 8.4583 14.1441 8.7105 14.4553 8.7105C14.7385 8.7105 14.9727 8.50207 15.013 8.23008L15.0191 8.14673V5.6308H16.7171C17.3732 5.6308 17.9332 6.11111 18.0446 6.74622L18.0608 6.87521L18.9203 17.7074C18.9872 18.5767 18.6862 19.4404 18.095 20.0786C17.5493 20.6677 16.7931 21.0253 15.9957 21.0768L15.7956 21.0833H6.80087C5.93078 21.0833 5.09265 20.7168 4.50143 20.0786C3.95572 19.4896 3.65723 18.7083 3.66685 17.909L3.67571 17.7089L4.53564 6.87371C4.58566 6.22081 5.10776 5.6997 5.74944 5.63711L5.87927 5.6308H7.57733ZM11.334 9.27079C11.1262 9.26779 10.9549 9.43367 10.9518 9.64206V10.3347C9.58481 10.4319 8.65524 11.2764 8.65524 12.4004C8.65524 13.7796 9.82784 14.1623 10.9518 14.4661V16.8964C10.3588 16.8168 9.79989 16.5707 9.34178 16.1855C9.25551 16.1169 9.14856 16.0786 9.03799 16.0762C8.7579 16.0956 8.54222 16.3301 8.54581 16.6108C8.54525 16.7336 8.59324 16.8514 8.67951 16.9389C9.30713 17.504 10.114 17.829 10.9579 17.8563L10.9585 18.5374C10.9682 18.7452 11.145 18.9056 11.3528 18.8953C11.5575 18.8953 11.7234 18.7294 11.7234 18.5247V17.8442C13.3821 17.7348 14.0504 16.7263 14.0504 15.657C14.0504 14.2231 12.8474 13.7856 11.7234 13.4819V11.3432C12.1809 11.4204 12.6123 11.6081 12.9811 11.89C13.0546 11.9405 13.1409 11.9678 13.2302 11.969C13.5164 11.969 13.7497 11.7388 13.7527 11.4526C13.7533 11.3299 13.7053 11.212 13.6191 11.1245C13.0862 10.6682 12.4179 10.3991 11.7174 10.359V9.64206C11.7174 9.4373 11.5515 9.27144 11.3468 9.27144C11.3425 9.27079 11.3382 9.27079 11.334 9.27079ZM11.7234 14.697C12.41 14.8914 12.9446 15.1527 12.9386 15.7906C12.9386 16.2524 12.6226 16.7992 11.7234 16.9085V14.697ZM10.9579 11.3007V13.2874C10.2957 13.093 9.77925 12.8925 9.77925 12.3275C9.77925 11.7625 10.2471 11.3554 10.9579 11.3007ZM11.2982 1.83325C13.35 1.83325 15.0191 3.50274 15.0191 5.55448V5.63077H13.8916V5.55448C13.8916 4.12438 12.7284 2.96077 11.2983 2.96077C9.86816 2.96077 8.70492 4.12438 8.70492 5.55448V5.63077H7.57737V5.55448C7.57737 3.50274 9.24648 1.83325 11.2982 1.83325Z" fill="#637381"/>
</svg>
