<svg width="22" height="22" viewBox="0 0 22 22" fill="none" xmlns="http://www.w3.org/2000/svg">
<path d="M8.10504 2.55603C3.77329 2.55603 0.458374 5.4954 0.458374 8.69963C0.458374 11.9039 3.32044 13.7605 3.32044 13.7605L2.85529 15.5236C2.79379 15.756 3.04284 15.9479 3.25192 15.8293L5.34268 14.6447C6.26727 14.939 8.22934 15.033 8.42041 15.0418C8.28337 14.5665 8.21572 14.0983 8.21572 13.6612C8.21572 11.1883 10.3689 7.7052 15.1552 7.7052C15.2641 7.7052 15.3731 7.70783 15.482 7.71222C14.8451 4.66392 11.68 2.55603 8.10504 2.55603Z" fill="#637381"/>
<path opacity="0.48" d="M21.5416 13.2744C21.5416 10.4677 18.2487 8.41248 15.1547 8.41248C10.779 8.41248 8.92236 11.5728 8.92236 13.6613C8.92236 15.7543 10.7786 18.9102 15.1547 18.9102C16.1228 18.9102 16.9744 18.7714 17.715 18.5254L19.3608 19.57C19.4908 19.6525 19.6551 19.5361 19.6204 19.3859L19.247 17.7651C20.8019 16.682 21.5416 14.9747 21.5416 13.2744Z" fill="#637381"/>
</svg>
