<svg width="22" height="22" viewBox="0 0 22 22" fill="none" xmlns="http://www.w3.org/2000/svg">
<path fill-rule="evenodd" clip-rule="evenodd" d="M3.3 4.26245H18.7C19.7627 4.26351 20.6239 5.12474 20.625 6.18745V18.0583C20.6239 19.121 19.7627 19.9822 18.7 19.9833H3.3C2.23729 19.9822 1.37606 19.121 1.375 18.0583V6.18745C1.37606 5.12474 2.23729 4.26351 3.3 4.26245ZM3.3 19.3416H18.7C19.4088 19.3416 19.9833 18.767 19.9833 18.0583V8.43328H2.01667V18.0583C2.01667 18.767 2.59123 19.3416 3.3 19.3416Z" fill="#637381"/>
<path d="M16.4541 3.62083V2.01667C16.4541 1.66228 16.1668 1.375 15.8124 1.375C15.4581 1.375 15.1708 1.66228 15.1708 2.01667V3.62083H16.4541Z" fill="#637381"/>
<path d="M6.82911 3.62083V2.01667C6.82911 1.66228 6.54183 1.375 6.18744 1.375C5.83306 1.375 5.54578 1.66228 5.54578 2.01667V3.62083H6.82911Z" fill="#637381"/>
<path opacity="0.48" fill-rule="evenodd" clip-rule="evenodd" d="M3.94019 11.0297C3.94019 10.4774 4.3879 10.0297 4.94019 10.0297H6.79019C7.34247 10.0297 7.79019 10.4774 7.79019 11.0297V12.3297C7.79019 12.8819 7.34247 13.3297 6.79019 13.3297H4.94019C4.3879 13.3297 3.94019 12.8819 3.94019 12.3297V11.0297ZM3.94019 15.6131C3.94019 15.0608 4.3879 14.6131 4.94019 14.6131H6.79019C7.34247 14.6131 7.79019 15.0608 7.79019 15.6131V16.9131C7.79019 17.4654 7.34247 17.9131 6.79019 17.9131H4.94019C4.3879 17.9131 3.94019 17.4654 3.94019 16.9131V15.6131ZM10.075 14.6131C9.52269 14.6131 9.07498 15.0608 9.07498 15.6131V16.9131C9.07498 17.4654 9.52269 17.9131 10.075 17.9131H11.925C12.4773 17.9131 12.925 17.4654 12.925 16.9131V15.6131C12.925 15.0608 12.4773 14.6131 11.925 14.6131H10.075ZM9.07498 11.0297C9.07498 10.4774 9.52269 10.0297 10.075 10.0297H11.925C12.4773 10.0297 12.925 10.4774 12.925 11.0297V12.3297C12.925 12.8819 12.4773 13.3297 11.925 13.3297H10.075C9.52269 13.3297 9.07498 12.8819 9.07498 12.3297V11.0297ZM15.2098 10.0297C14.6575 10.0297 14.2098 10.4774 14.2098 11.0297V12.3297C14.2098 12.8819 14.6575 13.3297 15.2098 13.3297H17.0598C17.6121 13.3297 18.0598 12.8819 18.0598 12.3297V11.0297C18.0598 10.4774 17.6121 10.0297 17.0598 10.0297H15.2098Z" fill="#637381"/>
</svg>
