<svg width="22" height="22" viewBox="0 0 22 22" fill="none" xmlns="http://www.w3.org/2000/svg">
<path fill-rule="evenodd" clip-rule="evenodd" d="M18.3334 2.75C19.3459 2.75 20.1667 3.57081 20.1667 4.58333V13.75C20.1667 14.7625 19.3459 15.5833 18.3334 15.5833H3.66671C2.65419 15.5833 1.83337 14.7625 1.83337 13.75V4.58333C1.83337 3.57081 2.65419 2.75 3.66671 2.75H18.3334ZM10.5417 5.5H5.95837C5.19898 5.5 4.58337 6.11561 4.58337 6.875V8.70833C4.58337 9.46772 5.19898 10.0833 5.95837 10.0833H10.5417C11.3011 10.0833 11.9167 9.46772 11.9167 8.70833V6.875C11.9167 6.11561 11.3011 5.5 10.5417 5.5Z" fill="#637381"/>
<path opacity="0.48" fill-rule="evenodd" clip-rule="evenodd" d="M11 14.6666C11.5062 14.6666 11.9166 15.077 11.9166 15.5833V18.3333H14.6666C15.1729 18.3333 15.5833 18.7437 15.5833 19.25C15.5833 19.7562 15.1729 20.1666 14.6666 20.1666H7.33329C6.82703 20.1666 6.41663 19.7562 6.41663 19.25C6.41663 18.7437 6.82703 18.3333 7.33329 18.3333H10.0833V15.5833C10.0833 15.077 10.4937 14.6666 11 14.6666Z" fill="#637381"/>
</svg>
